frame:0    pts:4096    pts_time:0.266667
lavfi.scene_score=0.110365
frame:1    pts:105984  pts_time:6.9
lavfi.scene_score=0.130257
frame:2    pts:111104  pts_time:7.233333
lavfi.scene_score=0.167505
frame:3    pts:112640  pts_time:7.333333
lavfi.scene_score=0.200215
frame:4    pts:177664  pts_time:11.566667
lavfi.scene_score=0.169999
frame:5    pts:183296  pts_time:11.933333
lavfi.scene_score=0.136435
frame:6    pts:184320  pts_time:12
lavfi.scene_score=0.423134
frame:7    pts:252928  pts_time:16.466667
lavfi.scene_score=0.215568
frame:8    pts:351744  pts_time:22.9
lavfi.scene_score=0.158673
frame:9    pts:357888  pts_time:23.3
lavfi.scene_score=0.250524
frame:10   pts:437248  pts_time:28.466667
lavfi.scene_score=0.735206
frame:11   pts:549376  pts_time:35.766667
lavfi.scene_score=0.150228
frame:12   pts:557056  pts_time:36.266667
lavfi.scene_score=0.260087
frame:13   pts:655360  pts_time:42.666667
lavfi.scene_score=0.395789
frame:14   pts:765952  pts_time:49.866667
lavfi.scene_score=0.209755
frame:15   pts:899072  pts_time:58.533333
lavfi.scene_score=0.271328
frame:16   pts:976384  pts_time:63.566667
lavfi.scene_score=0.650425
frame:17   pts:1112576 pts_time:72.433333
lavfi.scene_score=0.244629
frame:18   pts:1178112 pts_time:76.7
lavfi.scene_score=0.223990
frame:19   pts:1253888 pts_time:81.633333
lavfi.scene_score=0.295489
frame:20   pts:1313280 pts_time:85.5
lavfi.scene_score=0.352858
frame:21   pts:1414144 pts_time:92.066667
lavfi.scene_score=0.331264
frame:22   pts:1533440 pts_time:99.833333
lavfi.scene_score=0.290680
frame:23   pts:1533952 pts_time:99.866667
lavfi.scene_score=0.125530
frame:24   pts:1579008 pts_time:102.8
lavfi.scene_score=0.125866
frame:25   pts:1692672 pts_time:110.2
lavfi.scene_score=0.208295
frame:26   pts:1777664 pts_time:115.733333
lavfi.scene_score=0.171611
frame:27   pts:1848320 pts_time:120.333333
lavfi.scene_score=0.154604
frame:28   pts:1880064 pts_time:122.4
lavfi.scene_score=0.322139
frame:29   pts:1993216 pts_time:129.766667
lavfi.scene_score=0.273516
frame:30   pts:2067968 pts_time:134.633333
lavfi.scene_score=0.418680
frame:31   pts:2101248 pts_time:136.8
lavfi.scene_score=0.213751
frame:32   pts:2203136 pts_time:143.433333
lavfi.scene_score=0.247390
frame:33   pts:2263040 pts_time:147.333333
lavfi.scene_score=0.233312
frame:34   pts:2353664 pts_time:153.233333
lavfi.scene_score=0.237457
frame:35   pts:2460160 pts_time:160.166667
lavfi.scene_score=0.449093
frame:36   pts:2594816 pts_time:168.933333
lavfi.scene_score=0.181859
frame:37   pts:2629632 pts_time:171.2
lavfi.scene_score=0.348023
frame:38   pts:2706944 pts_time:176.233333
lavfi.scene_score=0.341043
frame:39   pts:2801664 pts_time:182.4
lavfi.scene_score=0.383907
frame:40   pts:2926592 pts_time:190.533333
lavfi.scene_score=0.225715
frame:41   pts:3037184 pts_time:197.733333
lavfi.scene_score=0.222344
frame:42   pts:3055616 pts_time:198.933333
lavfi.scene_score=0.342105
frame:43   pts:3121664 pts_time:203.233333
lavfi.scene_score=0.196315
frame:44   pts:3201024 pts_time:208.4
lavfi.scene_score=0.361086
frame:45   pts:3316736 pts_time:215.933333
lavfi.scene_score=0.315582
frame:46   pts:3444224 pts_time:224.233333
lavfi.scene_score=0.213137
frame:47   pts:3564032 pts_time:232.033333
lavfi.scene_score=0.343667
frame:48   pts:3639296 pts_time:236.933333
lavfi.scene_score=0.383505
frame:49   pts:3710464 pts_time:241.566667
lavfi.scene_score=0.296518
frame:50   pts:3732992 pts_time:243.033333
lavfi.scene_score=0.312311
frame:51   pts:3806720 pts_time:247.833333
lavfi.scene_score=0.257332
frame:52   pts:3860480 pts_time:251.333333
lavfi.scene_score=0.408844
frame:53   pts:3976704 pts_time:258.9
lavfi.scene_score=0.205459
frame:54   pts:4069376 pts_time:264.933333
lavfi.scene_score=0.120431
frame:55   pts:4070400 pts_time:265
lavfi.scene_score=0.237349
frame:56   pts:4136448 pts_time:269.3
lavfi.scene_score=0.147366
frame:57   pts:4156928 pts_time:270.633333
lavfi.scene_score=0.208441
frame:58   pts:4254720 pts_time:277
lavfi.scene_score=0.277319
frame:59   pts:4350464 pts_time:283.233333
lavfi.scene_score=0.190512
frame:60   pts:4453376 pts_time:289.933333
lavfi.scene_score=0.163893
frame:61   pts:4536320 pts_time:295.333333
lavfi.scene_score=0.371045
frame:62   pts:4627456 pts_time:301.266667
lavfi.scene_score=0.299168
frame:63   pts:4657152 pts_time:303.2
lavfi.scene_score=0.263986
frame:64   pts:4744704 pts_time:308.9
lavfi.scene_score=0.364123
frame:65   pts:4809216 pts_time:313.1
lavfi.scene_score=0.251889
frame:66   pts:4825088 pts_time:314.133333
lavfi.scene_score=0.114929
frame:67   pts:4908544 pts_time:319.566667
lavfi.scene_score=0.221502
frame:68   pts:5010944 pts_time:326.233333
lavfi.scene_score=0.234319
frame:69   pts:5026304 pts_time:327.233333
lavfi.scene_score=0.338157
frame:70   pts:5120000 pts_time:333.333333
lavfi.scene_score=0.181376
frame:71   pts:5129728 pts_time:333.966667
lavfi.scene_score=0.239537
frame:72   pts:5254144 pts_time:342.066667
lavfi.scene_score=0.207487
frame:73   pts:5378048 pts_time:350.133333
lavfi.scene_score=0.300795
frame:74   pts:5460992 pts_time:355.533333
lavfi.scene_score=0.114893
frame:75   pts:5516800 pts_time:359.166667
lavfi.scene_score=0.202649
frame:76   pts:5589504 pts_time:363.9
lavfi.scene_score=0.294544
frame:77   pts:5670912 pts_time:369.2
lavfi.scene_score=0.138069
frame:78   pts:5671424 pts_time:369.233333
lavfi.scene_score=0.105435
frame:79   pts:5681152 pts_time:369.866667
lavfi.scene_score=0.424902
frame:80   pts:5681664 pts_time:369.9
lavfi.scene_score=0.145446
frame:81   pts:5706752 pts_time:371.533333
lavfi.scene_score=0.339662
frame:82   pts:5790208 pts_time:376.966667
lavfi.scene_score=0.462880
frame:83   pts:5900800 pts_time:384.166667
lavfi.scene_score=0.254029
frame:84   pts:5963776 pts_time:388.266667
lavfi.scene_score=0.292049
frame:85   pts:6033920 pts_time:392.833333
lavfi.scene_score=0.293796
frame:86   pts:6065664 pts_time:394.9
lavfi.scene_score=0.134253
frame:87   pts:6120960 pts_time:398.5
lavfi.scene_score=0.205980
frame:88   pts:6220800 pts_time:405
lavfi.scene_score=0.214263
frame:89   pts:6316544 pts_time:411.233333
lavfi.scene_score=0.553342
frame:90   pts:6386688 pts_time:415.8
lavfi.scene_score=0.452042
frame:91   pts:6528512 pts_time:425.033333
lavfi.scene_score=0.494901
frame:92   pts:6595584 pts_time:429.4
lavfi.scene_score=0.244890
frame:93   pts:6696960 pts_time:436
lavfi.scene_score=0.227079
frame:94   pts:6764544 pts_time:440.4
lavfi.scene_score=0.510386
frame:95   pts:6854144 pts_time:446.233333
lavfi.scene_score=0.263787
frame:96   pts:6912512 pts_time:450.033333
lavfi.scene_score=0.198981
frame:97   pts:6944256 pts_time:452.1
lavfi.scene_score=0.222145
frame:98   pts:6991872 pts_time:455.2
lavfi.scene_score=0.434944
frame:99   pts:7054336 pts_time:459.266667
lavfi.scene_score=0.206466
frame:100  pts:7117824 pts_time:463.4
lavfi.scene_score=0.262686
frame:101  pts:7151104 pts_time:465.566667
lavfi.scene_score=0.270338
frame:102  pts:7260160 pts_time:472.666667
lavfi.scene_score=0.293424
frame:103  pts:7338496 pts_time:477.766667
lavfi.scene_score=0.563797
frame:104  pts:7440896 pts_time:484.433333
lavfi.scene_score=0.514535
frame:105  pts:7599616 pts_time:494.766667
lavfi.scene_score=0.207466
frame:106  pts:7671296 pts_time:499.433333
lavfi.scene_score=0.229532
frame:107  pts:7744512 pts_time:504.2
lavfi.scene_score=0.232797
frame:108  pts:7888896 pts_time:513.6
lavfi.scene_score=0.379319
frame:109  pts:7985152 pts_time:519.866667
lavfi.scene_score=0.352546
frame:110  pts:8057344 pts_time:524.566667
lavfi.scene_score=0.354762
frame:111  pts:8168960 pts_time:531.833333
lavfi.scene_score=0.242528
frame:112  pts:8225792 pts_time:535.533333
lavfi.scene_score=0.506714
frame:113  pts:8300544 pts_time:540.4
lavfi.scene_score=0.508823
frame:114  pts:8383488 pts_time:545.8
lavfi.scene_score=0.583083
frame:115  pts:8427520 pts_time:548.666667
lavfi.scene_score=0.187946
frame:116  pts:8451584 pts_time:550.233333
lavfi.scene_score=0.483227
frame:117  pts:8479744 pts_time:552.066667
lavfi.scene_score=0.168815
frame:118  pts:8536576 pts_time:555.766667
lavfi.scene_score=0.240567
frame:119  pts:8581120 pts_time:558.666667
lavfi.scene_score=0.317912
frame:120  pts:8719872 pts_time:567.7
lavfi.scene_score=0.284481
frame:121  pts:8816128 pts_time:573.966667
lavfi.scene_score=0.255465
frame:122  pts:8919552 pts_time:580.7
lavfi.scene_score=0.335022
frame:123  pts:8980480 pts_time:584.666667
lavfi.scene_score=0.218794
frame:124  pts:9037312 pts_time:588.366667
lavfi.scene_score=0.213463
frame:125  pts:9086976 pts_time:591.6
lavfi.scene_score=0.198571
frame:126  pts:9194496 pts_time:598.6
lavfi.scene_score=0.209290
frame:127  pts:9294848 pts_time:605.133333
lavfi.scene_score=0.250286
frame:128  pts:9421312 pts_time:613.366667
lavfi.scene_score=0.577870
frame:129  pts:9542144 pts_time:621.233333
lavfi.scene_score=0.144805
frame:130  pts:9549312 pts_time:621.7
lavfi.scene_score=0.473153
frame:131  pts:9549824 pts_time:621.733333
lavfi.scene_score=0.154929
frame:132  pts:9632768 pts_time:627.133333
lavfi.scene_score=0.179177
frame:133  pts:9677312 pts_time:630.033333
lavfi.scene_score=0.166437
frame:134  pts:9688064 pts_time:630.733333
lavfi.scene_score=0.165615
frame:135  pts:9734656 pts_time:633.766667
lavfi.scene_score=0.412445
frame:136  pts:9769984 pts_time:636.066667
lavfi.scene_score=0.177172
frame:137  pts:9834496 pts_time:640.266667
lavfi.scene_score=0.115774
frame:138  pts:9835520 pts_time:640.333333
lavfi.scene_score=0.309191
frame:139  pts:9935872 pts_time:646.866667
lavfi.scene_score=0.454081
frame:140  pts:10058752 pts_time:654.866667
lavfi.scene_score=0.150588
frame:141  pts:10059264 pts_time:654.9
lavfi.scene_score=0.211914
frame:142  pts:10176512 pts_time:662.533333
lavfi.scene_score=0.220248
frame:143  pts:10195456 pts_time:663.766667
lavfi.scene_score=0.235255
frame:144  pts:10222592 pts_time:665.533333
lavfi.scene_score=0.149590
frame:145  pts:10270720 pts_time:668.666667
lavfi.scene_score=0.327446
frame:146  pts:10321408 pts_time:671.966667
lavfi.scene_score=0.342491
frame:147  pts:10425856 pts_time:678.766667
lavfi.scene_score=0.276701
frame:148  pts:10512384 pts_time:684.4
lavfi.scene_score=0.411235
frame:149  pts:10612224 pts_time:690.9
lavfi.scene_score=0.259101
frame:150  pts:10616832 pts_time:691.2
lavfi.scene_score=0.126350
frame:151  pts:10629632 pts_time:692.033333
lavfi.scene_score=0.182139
frame:152  pts:10634240 pts_time:692.333333
lavfi.scene_score=0.281682
frame:153  pts:10691072 pts_time:696.033333
lavfi.scene_score=0.147390
frame:154  pts:10692096 pts_time:696.1
lavfi.scene_score=0.344054
frame:155  pts:10751488 pts_time:699.966667
lavfi.scene_score=0.252382
frame:156  pts:10775552 pts_time:701.533333
lavfi.scene_score=0.222643
frame:157  pts:10783744 pts_time:702.066667
lavfi.scene_score=0.219478
frame:158  pts:10888704 pts_time:708.9
lavfi.scene_score=0.185859
frame:159  pts:10913280 pts_time:710.5
lavfi.scene_score=0.333273
frame:160  pts:10980352 pts_time:714.866667
lavfi.scene_score=0.623787
frame:161  pts:10992128 pts_time:715.633333
lavfi.scene_score=0.196303
frame:162  pts:11014656 pts_time:717.1
lavfi.scene_score=0.250615
frame:163  pts:11015168 pts_time:717.133333
lavfi.scene_score=0.220823
frame:164  pts:11097600 pts_time:722.5
lavfi.scene_score=0.264645
frame:165  pts:11135488 pts_time:724.966667
lavfi.scene_score=0.190651
frame:166  pts:11165696 pts_time:726.933333
lavfi.scene_score=0.229364
frame:167  pts:11207680 pts_time:729.666667
lavfi.scene_score=0.590591
frame:168  pts:11252736 pts_time:732.6
lavfi.scene_score=0.272535
frame:169  pts:11304960 pts_time:736
lavfi.scene_score=0.415293
frame:170  pts:11352064 pts_time:739.066667
lavfi.scene_score=0.451842
frame:171  pts:11384320 pts_time:741.166667
lavfi.scene_score=0.180681
frame:172  pts:11386368 pts_time:741.3
lavfi.scene_score=0.444269
frame:173  pts:11387904 pts_time:741.4
lavfi.scene_score=0.100640
frame:174  pts:11389952 pts_time:741.533333
lavfi.scene_score=0.454097
frame:175  pts:11391488 pts_time:741.633333
lavfi.scene_score=0.232549
frame:176  pts:11401728 pts_time:742.3
lavfi.scene_score=0.227932
frame:177  pts:11402752 pts_time:742.366667
lavfi.scene_score=0.134714
frame:178  pts:11441152 pts_time:744.866667
lavfi.scene_score=0.329004
frame:179  pts:11500544 pts_time:748.733333
lavfi.scene_score=0.206872
frame:180  pts:11604992 pts_time:755.533333
lavfi.scene_score=0.280967
frame:181  pts:11682816 pts_time:760.6
lavfi.scene_score=0.417753
frame:182  pts:11734016 pts_time:763.933333
lavfi.scene_score=0.261578
frame:183  pts:11758080 pts_time:765.5
lavfi.scene_score=0.117796
frame:184  pts:11842048 pts_time:770.966667
lavfi.scene_score=0.240208
frame:185  pts:11907584 pts_time:775.233333
lavfi.scene_score=0.241965
frame:186  pts:12021248 pts_time:782.633333
lavfi.scene_score=0.132355
frame:187  pts:12022272 pts_time:782.7
lavfi.scene_score=0.245051
frame:188  pts:12071424 pts_time:785.9
lavfi.scene_score=0.127844
frame:189  pts:12121600 pts_time:789.166667
lavfi.scene_score=0.342337
frame:190  pts:12166656 pts_time:792.1
lavfi.scene_score=0.176456
frame:191  pts:12179968 pts_time:792.966667
lavfi.scene_score=0.144883
frame:192  pts:12217344 pts_time:795.4
lavfi.scene_score=0.164212
frame:193  pts:12280320 pts_time:799.5
lavfi.scene_score=0.387459
frame:194  pts:12322816 pts_time:802.266667
lavfi.scene_score=0.105586
frame:195  pts:12362240 pts_time:804.833333
lavfi.scene_score=0.107320
frame:196  pts:12363264 pts_time:804.9
lavfi.scene_score=0.308097
frame:197  pts:12409344 pts_time:807.9
lavfi.scene_score=0.350053
frame:198  pts:12541952 pts_time:816.533333
lavfi.scene_score=0.301479
frame:199  pts:12649472 pts_time:823.533333
lavfi.scene_score=0.203626
frame:200  pts:12743168 pts_time:829.633333
lavfi.scene_score=0.344328
frame:201  pts:12834816 pts_time:835.6
lavfi.scene_score=0.249800
frame:202  pts:12977664 pts_time:844.9
lavfi.scene_score=0.297453
frame:203  pts:13115392 pts_time:853.866667
lavfi.scene_score=0.185496
frame:204  pts:13191680 pts_time:858.833333
lavfi.scene_score=0.211498
frame:205  pts:13270528 pts_time:863.966667
lavfi.scene_score=0.578620
frame:206  pts:13335040 pts_time:868.166667
lavfi.scene_score=0.167039
frame:207  pts:13436416 pts_time:874.766667
lavfi.scene_score=0.115782
frame:208  pts:13441536 pts_time:875.1
lavfi.scene_score=0.131986
frame:209  pts:13561856 pts_time:882.933333
lavfi.scene_score=0.324335
frame:210  pts:13643776 pts_time:888.266667
lavfi.scene_score=0.312483
frame:211  pts:13766656 pts_time:896.266667
lavfi.scene_score=0.539099
frame:212  pts:13847040 pts_time:901.5
lavfi.scene_score=0.217596
frame:213  pts:13896704 pts_time:904.733333
lavfi.scene_score=0.316240
frame:214  pts:13984256 pts_time:910.433333
lavfi.scene_score=0.126954
frame:215  pts:13999616 pts_time:911.433333
lavfi.scene_score=0.188776
frame:216  pts:14092800 pts_time:917.5
lavfi.scene_score=0.493302
frame:217  pts:14174208 pts_time:922.8
lavfi.scene_score=0.459440
frame:218  pts:14230528 pts_time:926.466667
lavfi.scene_score=0.129679
frame:219  pts:14360064 pts_time:934.9
lavfi.scene_score=0.217548
frame:220  pts:14457856 pts_time:941.266667
lavfi.scene_score=0.478811
frame:221  pts:14589440 pts_time:949.833333
lavfi.scene_score=0.252885
frame:222  pts:14669312 pts_time:955.033333
lavfi.scene_score=0.242144
frame:223  pts:14695936 pts_time:956.766667
lavfi.scene_score=0.294717
frame:224  pts:14820864 pts_time:964.9
lavfi.scene_score=0.605090
frame:225  pts:14885376 pts_time:969.1
lavfi.scene_score=0.389090
frame:226  pts:14958080 pts_time:973.833333
lavfi.scene_score=0.252800
frame:227  pts:14982656 pts_time:975.433333
lavfi.scene_score=0.214194
frame:228  pts:15014400 pts_time:977.5
lavfi.scene_score=0.189610
